<?xml version="1.0" standalone="no"?>
<!DOCTYPE svg PUBLIC "-//W3C//DTD SVG 20010904//EN"
 "http://www.w3.org/TR/2001/REC-SVG-20010904/DTD/svg10.dtd">
<svg version="1.0" xmlns="http://www.w3.org/2000/svg"
 width="2173.000000pt" height="439.000000pt" viewBox="0 0 2173.000000 439.000000"
 preserveAspectRatio="xMidYMid meet">

<g transform="translate(0.000000,439.000000) scale(0.100000,-0.100000)"
fill="#000000" stroke="none">
<path d="M1275 4363 c-16 -2 -74 -13 -129 -24 -749 -155 -1234 -869 -1086
-1596 98 -480 449 -870 923 -1028 179 -59 250 -70 467 -70 257 0 391 28 607
124 l88 40 29 -32 c16 -18 64 -69 107 -115 l78 -82 225 2 224 3 -295 325
c-357 392 -701 762 -719 773 -7 4 -115 6 -241 5 l-228 -3 270 -288 c149 -159
270 -294 270 -300 0 -13 -114 -52 -214 -73 -100 -21 -282 -21 -394 0 -337 64
-606 271 -752 578 -101 214 -117 462 -44 698 77 249 271 469 524 595 181 90
352 122 553 105 278 -24 489 -124 672 -316 123 -129 195 -253 246 -419 25 -83
28 -103 28 -255 -1 -137 -4 -178 -22 -245 -25 -93 -105 -259 -156 -327 -20
-26 -36 -51 -36 -57 0 -17 234 -266 250 -266 23 0 142 166 203 284 97 189 136
341 144 562 6 170 -10 295 -59 449 -158 497 -599 866 -1131 944 -94 14 -321
19 -402 9z"/>
<path d="M6469 2999 c-327 -704 -595 -1285 -597 -1290 -2 -5 41 -9 101 -9
l104 0 159 355 159 355 753 -2 753 -3 162 -350 162 -350 107 -3 107 -3 -73
158 c-40 87 -308 668 -596 1291 l-523 1132 -91 0 -92 0 -595 -1281z m1006 351
c158 -349 300 -663 316 -697 l28 -63 -664 0 c-392 0 -665 4 -665 9 0 7 572
1267 653 1438 10 22 11 22 27 -15 10 -20 147 -323 305 -672z"/>
<path d="M14661 3004 c-326 -702 -595 -1283 -598 -1290 -4 -11 14 -14 99 -14
l104 0 159 355 159 355 752 0 751 0 90 -192 c49 -106 123 -266 164 -355 l74
-163 106 0 107 0 -596 1290 -596 1290 -92 0 -91 0 -592 -1276z m1009 334 c177
-392 325 -721 328 -730 4 -17 -32 -18 -661 -18 l-666 0 17 38 c179 400 649
1422 653 1422 3 0 151 -321 329 -712z"/>
<path d="M3428 4265 c-9 -9 2 -1600 13 -1707 34 -365 241 -665 561 -813 266
-123 706 -123 977 0 283 129 475 408 536 780 12 72 17 254 22 913 l6 822 -95
0 -95 0 -6 -167 c-4 -91 -7 -448 -7 -792 0 -371 -4 -661 -10 -711 -39 -318
-194 -559 -432 -674 -142 -68 -203 -80 -403 -81 -204 0 -284 15 -413 80 -163
82 -278 199 -357 360 -84 171 -87 192 -96 680 -4 237 -7 626 -8 866 l-1 436
-52 7 c-64 7 -133 8 -140 1z"/>
<path d="M8910 2986 l0 -1286 511 0 c475 0 518 1 611 20 306 63 573 196 759
380 229 227 329 486 329 855 0 249 -39 433 -130 621 -162 334 -464 555 -900
660 l-115 27 -532 4 -533 4 0 -1285z m1080 1084 c264 -54 480 -167 650 -339
129 -131 207 -268 252 -446 29 -118 36 -369 13 -505 -41 -250 -136 -434 -307
-596 -123 -116 -277 -205 -458 -262 -156 -49 -208 -53 -640 -50 l-395 3 -3
1095 c-1 602 0 1101 3 1108 3 9 92 12 396 12 352 0 401 -2 489 -20z"/>
<path d="M11707 4263 c-4 -3 -7 -582 -7 -1285 l0 -1278 95 0 95 0 0 525 0 525
423 0 422 -1 350 -456 c193 -252 376 -490 408 -530 l57 -73 115 0 c63 0 115 3
115 8 0 4 -185 248 -410 541 -226 294 -409 536 -407 537 2 2 46 15 98 28 265
69 465 210 556 393 59 117 77 207 71 357 -7 176 -52 297 -156 424 -116 142
-362 251 -637 282 -99 11 -1178 14 -1188 3z m1163 -184 c333 -41 535 -177 603
-406 39 -130 28 -267 -29 -390 -38 -81 -167 -208 -254 -250 -188 -90 -224 -95
-802 -100 l-498 -5 0 581 0 581 448 0 c253 0 484 -5 532 -11z"/>
<path d="M17090 2980 l0 -1280 95 0 95 0 0 1125 c0 619 3 1125 8 1124 4 0 409
-509 901 -1130 l893 -1130 72 3 71 3 3 1283 2 1282 -95 0 -95 0 -2 -1105 -3
-1105 -875 1102 -875 1103 -98 3 -97 3 0 -1281z"/>
<path d="M19730 4170 l0 -90 445 0 445 0 2 -1192 3 -1193 98 -3 97 -3 0 1196
0 1195 445 0 445 0 0 90 0 90 -990 0 -990 0 0 -90z"/>
<path d="M12539 1022 c-101 -103 -119 -128 -119 -169 0 -60 132 -183 196 -183
58 0 194 125 194 179 0 37 -45 102 -127 183 l-68 68 -76 -78z"/>
<path d="M15603 870 c-85 -18 -143 -63 -183 -143 -25 -50 -30 -72 -30 -132 0
-131 51 -220 157 -272 94 -45 224 -36 302 21 35 26 81 83 81 101 0 6 -24 23
-53 37 l-53 26 -16 -28 c-23 -40 -62 -62 -117 -68 -80 -7 -141 35 -166 116
l-6 22 215 0 216 0 0 43 c0 108 -62 212 -153 256 -50 24 -136 33 -194 21z
m144 -120 c30 -18 63 -65 63 -90 0 -6 -49 -10 -140 -10 -98 0 -140 3 -140 11
0 22 42 79 68 94 39 21 111 19 149 -5z"/>
<path d="M10540 861 c-76 -23 -127 -69 -162 -146 -33 -72 -32 -210 1 -275 45
-88 107 -133 197 -145 70 -10 128 9 180 57 l44 41 0 -42 0 -41 40 0 40 0 0
270 0 270 -40 0 c-39 0 -40 -1 -40 -35 0 -19 -2 -35 -4 -35 -2 0 -19 15 -39
34 -51 48 -146 68 -217 47z m178 -104 c48 -31 74 -84 80 -160 14 -190 -183
-299 -303 -166 -93 104 -61 291 60 346 44 20 117 11 163 -20z"/>
<path d="M11222 844 c-29 -14 -61 -37 -72 -51 l-20 -26 0 42 0 41 -45 0 -45 0
0 -270 0 -270 45 0 45 0 0 177 c0 170 1 178 25 219 26 44 90 84 133 84 41 0
91 -28 112 -62 18 -30 20 -50 20 -225 l0 -193 45 0 45 0 0 198 c0 112 -5 214
-11 237 -30 108 -163 156 -277 99z"/>
<path d="M13560 861 c-84 -26 -152 -95 -177 -180 -24 -83 -14 -185 24 -252 76
-138 274 -179 386 -81 16 14 17 13 17 -11 0 -26 1 -27 65 -27 l65 0 0 270 0
270 -65 0 c-58 0 -65 -2 -65 -20 0 -24 -8 -25 -31 -4 -41 37 -153 55 -219 35z
m196 -142 c40 -38 57 -79 57 -140 0 -90 -48 -153 -125 -165 -50 -9 -81 1 -121
36 -81 71 -71 220 19 282 42 28 134 21 170 -13z"/>
<path d="M14285 852 c-22 -11 -48 -27 -58 -36 -16 -16 -17 -16 -17 8 0 25 -1
26 -70 26 l-70 0 0 -385 0 -385 70 0 70 0 0 136 0 135 29 -20 c94 -67 261 -40
340 56 47 57 64 121 59 217 -6 116 -51 191 -143 238 -57 30 -158 34 -210 10z
m143 -122 c47 -29 76 -97 70 -167 -5 -60 -26 -95 -79 -131 -65 -45 -167 -14
-203 62 -21 45 -21 132 2 176 37 75 138 104 210 60z"/>
<path d="M14950 855 c-19 -9 -45 -26 -57 -37 l-23 -21 0 26 c0 27 -1 27 -70
27 l-70 0 0 -385 0 -385 70 0 70 0 0 134 0 135 47 -27 c54 -30 150 -36 217
-13 56 19 120 82 146 144 26 60 32 166 12 234 -18 60 -69 123 -125 151 -61 32
-166 40 -217 17z m141 -128 c46 -30 69 -80 69 -147 0 -98 -50 -159 -137 -167
-84 -8 -153 56 -161 150 -6 70 23 138 70 167 46 28 115 27 159 -3z"/>
<path d="M16270 850 c-25 -12 -55 -31 -67 -42 l-23 -21 0 31 0 32 -70 0 -70 0
0 -270 0 -270 70 0 70 0 0 158 c0 179 13 225 72 262 46 29 113 22 145 -15 22
-25 23 -33 23 -216 l0 -189 71 0 70 0 -3 218 c-3 206 -4 219 -26 254 -33 53
-81 80 -155 85 -48 3 -72 -1 -107 -17z"/>
<path d="M17343 860 c-81 -19 -154 -83 -189 -166 -26 -60 -23 -176 6 -242 60
-138 242 -202 378 -133 32 17 112 91 112 105 0 3 -14 14 -30 26 l-31 22 -38
-40 c-47 -48 -97 -67 -159 -58 -101 14 -165 91 -166 201 -2 192 203 286 324
149 l31 -35 34 21 c34 21 35 22 20 51 -42 80 -178 126 -292 99z"/>
<path d="M17930 857 c-66 -18 -116 -53 -149 -100 -39 -59 -51 -100 -51 -177 0
-123 49 -208 148 -257 76 -37 191 -39 264 -4 54 26 112 86 136 140 21 49 22
193 0 242 -55 125 -211 195 -348 156z m155 -86 c170 -77 161 -329 -14 -389
-127 -44 -251 54 -251 198 0 94 47 167 127 195 52 19 91 18 138 -4z"/>
<path d="M18613 859 c-18 -5 -49 -25 -68 -45 l-35 -35 0 36 c0 35 0 35 -45 35
l-45 0 0 -270 0 -270 44 0 45 0 3 183 c3 155 6 188 22 221 38 77 120 99 178
47 l33 -29 3 -211 3 -211 45 0 44 0 0 178 c0 189 9 232 57 275 28 25 86 32
124 17 52 -22 59 -54 59 -275 l0 -195 45 0 45 0 0 208 c0 114 -5 224 -10 244
-32 115 -205 143 -300 48 l-37 -37 -16 29 c-31 53 -118 79 -194 57z"/>
<path d="M19539 861 c-42 -14 -72 -32 -106 -64 l-33 -31 0 42 0 42 -45 0 -45
0 0 -385 0 -385 45 0 45 0 0 152 0 152 28 -26 c49 -47 92 -62 167 -63 91 0
153 29 200 94 106 145 64 381 -79 450 -50 24 -137 35 -177 22z m142 -105 c96
-64 111 -244 27 -333 -31 -33 -100 -57 -149 -50 -198 26 -223 346 -31 408 42
13 112 1 153 -25z"/>
<path d="M20131 859 c-77 -24 -149 -98 -171 -178 -5 -20 -10 -70 -10 -112 0
-132 66 -232 176 -265 91 -27 164 -13 224 45 l40 38 0 -39 0 -38 45 0 45 0 0
270 0 270 -45 0 -45 0 0 -41 0 -41 -26 32 c-15 17 -39 37 -55 45 -37 20 -135
27 -178 14z m155 -88 c120 -55 151 -246 55 -342 -123 -123 -303 -34 -302 150
0 98 34 159 106 192 51 24 89 23 141 0z"/>
<path d="M20842 858 c-18 -6 -53 -29 -77 -50 l-45 -40 0 41 0 41 -45 0 -45 0
0 -270 0 -270 44 0 44 0 4 178 c3 198 9 219 75 269 29 22 47 28 87 27 31 0 61
-7 78 -18 48 -32 58 -77 58 -276 l0 -180 40 0 40 0 0 218 c0 206 -1 219 -23
256 -12 22 -38 48 -59 58 -45 23 -131 31 -176 16z"/>
<path d="M21170 845 c0 -3 49 -126 109 -274 l109 -269 -24 -58 c-29 -72 -56
-97 -95 -89 -26 6 -28 3 -35 -30 -3 -20 -3 -39 1 -43 4 -4 28 -7 55 -6 52 0
90 20 116 59 14 22 273 644 290 697 5 16 -1 18 -44 18 l-49 0 -82 -211 c-46
-116 -84 -209 -86 -207 -1 2 -39 96 -85 211 l-82 207 -49 0 c-27 0 -49 -2 -49
-5z"/>
<path d="M12279 751 c-24 -17 -75 -62 -114 -101 l-70 -71 80 -76 c141 -135
175 -143 259 -63 64 61 102 126 93 161 -9 34 -92 136 -130 159 -44 27 -66 25
-118 -9z"/>
<path d="M12834 761 c-39 -24 -122 -125 -131 -159 -9 -36 28 -100 93 -162 84
-80 116 -72 259 63 l80 75 -70 72 c-78 79 -148 130 -179 130 -12 0 -35 -9 -52
-19z"/>
<path d="M12571 483 c-18 -9 -60 -42 -92 -73 -50 -47 -59 -61 -59 -90 1 -19 6
-45 13 -57 21 -38 167 -193 182 -193 14 0 144 137 176 187 39 58 14 116 -81
189 -67 52 -95 59 -139 37z"/>
</g>
</svg>
